<svg width="25" height="24" viewBox="0 0 25 24" fill="none" xmlns="http://www.w3.org/2000/svg">
<path d="M19.7179 1.86856C14.2097 -1.3974 6.94507 -0.281688 2.71443 4.43095C-0.206766 7.94462 -0.798671 12.6427 1.07711 16.7829C3.04871 21.1375 7.17288 23.6291 11.955 23.9539C14.3481 24.1162 17.0458 23.8914 19.1217 22.6112C21.3743 21.2208 23.3289 19.031 24.3019 16.5997C25.3282 14.0373 25.0876 10.8588 24.4467 8.22354C23.7824 5.49671 22.1728 3.32148 19.72 1.86856H19.7179ZM8.48231 20.8627C6.45109 19.9427 4.85848 18.4294 3.86204 16.4748C5.72718 15.6818 7.59232 14.8908 9.45746 14.0977C10.0664 14.6909 10.7903 15.1385 11.5973 15.4174C10.5582 17.2325 9.51921 19.0476 8.48231 20.8627ZM13.9095 10.3155C14.627 10.9941 14.8357 12.1806 14.0905 12.9383C13.3219 13.7209 11.7484 13.4316 11.2779 12.4845C10.4965 10.9087 12.5149 9.3684 13.9095 10.3134V10.3155ZM7.50077 8.55035C7.50077 8.55035 7.49226 8.53994 7.49013 8.53578C7.49651 8.53786 7.50289 8.53994 7.50928 8.54202C7.50715 8.5441 7.50503 8.54827 7.5029 8.55035H7.50077ZM14.4141 13.6835C14.1501 14.0082 13.7605 14.1976 13.2175 14.1393C13.6519 14.0935 14.0692 13.9437 14.4141 13.6835ZM16.8478 11.7934C16.7051 11.783 16.5625 11.7872 16.4198 11.8101C16.4134 11.731 16.4049 11.6519 16.3964 11.5748C16.4752 11.6206 16.5752 11.6373 16.6902 11.5998C16.803 11.5644 16.9138 11.527 17.0245 11.4895C16.9606 11.5853 16.901 11.6852 16.8456 11.7934H16.8478ZM14.3801 8.18191C14.3205 8.21938 14.2757 8.27766 14.2459 8.34636C14.1288 8.28391 14.0096 8.22771 13.8882 8.17567C14.0479 8.15902 14.2076 8.11738 14.3588 8.03829C14.429 8.0029 14.4929 7.95919 14.5568 7.91339C14.4972 8.0029 14.4376 8.09241 14.3779 8.18191H14.3801ZM22.441 9.2102C22.4581 9.20188 22.473 9.19355 22.49 9.18522C22.507 9.1769 22.522 9.16441 22.5369 9.154C22.5411 9.16649 22.5454 9.17898 22.5496 9.19355C22.5134 9.19563 22.4772 9.20188 22.4432 9.2102H22.441ZM18.2275 3.80232C20.2629 4.64951 21.6384 6.45214 21.9897 8.567C20.3076 9.44542 18.5681 10.174 16.7605 10.761C16.6391 9.75765 16.0536 8.90421 15.1785 8.39839C16.1941 6.86637 17.2118 5.33435 18.2275 3.80232ZM10.4433 4.66617C10.4198 4.64119 10.3964 4.61829 10.3709 4.5954C10.4411 4.52462 10.5093 4.45385 10.5795 4.38516C10.5348 4.47883 10.488 4.5725 10.4433 4.66617ZM2.49939 14.8471C2.53984 14.8679 2.57816 14.8887 2.62287 14.9074C2.63352 14.9116 2.64203 14.9137 2.65268 14.9178C2.62074 14.9366 2.59093 14.9532 2.559 14.9719C2.53983 14.9303 2.52068 14.8908 2.50152 14.8491L2.49939 14.8471ZM17.6398 3.26736C17.6526 3.24655 17.6675 3.22365 17.6803 3.20284C17.6845 3.20284 17.6888 3.207 17.693 3.20908C17.6739 3.22573 17.6568 3.24655 17.6398 3.26736ZM10.5476 2.26197C10.5476 2.26197 10.5497 2.25573 10.5519 2.25156C10.5561 2.25156 10.5582 2.25156 10.5625 2.24948C10.5582 2.25365 10.5518 2.25781 10.5476 2.26197ZM9.76406 20.2008C9.71935 20.5151 9.69593 20.8357 9.69593 21.1646C9.69593 21.2666 9.72361 21.3644 9.76619 21.4539C9.56392 21.3915 9.36378 21.3207 9.16577 21.2457C9.36591 20.8981 9.56392 20.5484 9.76406 20.2008ZM11.7335 21.5309C11.8613 21.6517 12.0231 21.7308 12.2254 21.7557C12.2488 21.8015 12.2701 21.8473 12.2956 21.891C12.0103 21.8806 11.7293 21.8577 11.4525 21.8223C11.5483 21.7266 11.642 21.6308 11.7335 21.5309ZM20.8484 18.0069C20.9102 17.9423 20.9677 17.8778 21.0252 17.8133C20.9592 17.8986 20.891 17.984 20.8229 18.0672C20.8314 18.0464 20.8399 18.0277 20.8484 18.0069ZM3.27014 4.97632C3.61719 4.59123 3.98554 4.23112 4.37304 3.89391C2.18427 6.12742 0.97065 9.20396 0.804576 12.3263C0.689602 9.72227 1.49868 7.10783 3.27014 4.97632ZM3.47028 19.1288C4.10264 19.8303 4.80313 20.4673 5.55898 21.0272C4.79249 20.4964 4.092 19.8657 3.47028 19.1288ZM16.5667 22.7903C17.8187 22.3635 19.0025 21.737 20.0543 20.9481C20.0245 20.9731 19.9925 21.0001 19.9627 21.0272C18.9215 21.889 17.7867 22.451 16.5667 22.7923V22.7903Z" fill="white"/>
</svg>
