<svg width="337" height="54" viewBox="0 0 337 54" fill="none" xmlns="http://www.w3.org/2000/svg">
<g filter="url(#filter0_d_1_319)">
<path d="M8.51562 29.9375C22.4323 28.0521 29.3906 25.8802 29.3906 23.4219C29.3906 22.026 27.3958 21.3281 23.4062 21.3281C22.8229 21.3281 22.1094 21.3438 21.2656 21.375C20.4323 21.4062 19.9479 21.4219 19.8125 21.4219C18.2396 21.4219 17.1667 21.2812 16.5938 21C15.7812 20.4375 14.9688 19.8698 14.1562 19.2969C13.9062 19.1198 13.4896 18.9948 12.9062 18.9219C12.3333 18.8385 11.9531 18.7396 11.7656 18.625C11.4115 18.4271 11.2344 18.0521 11.2344 17.5C11.2344 15.7083 12.6146 13.9115 15.375 12.1094C17.6562 10.6302 20.5208 9.34375 23.9688 8.25C27.0833 7.26042 29.5052 6.76562 31.2344 6.76562C32.8177 6.76562 33.6094 7.27083 33.6094 8.28125C33.6094 8.64583 33.1302 9.38542 32.1719 10.5C31.224 11.6042 30.5469 12.2552 30.1406 12.4531C29.6719 12.276 29.4375 11.9375 29.4375 11.4375C29.4375 11.3542 29.4531 11.2656 29.4844 11.1719L28.75 10.5938C27.125 10.5625 24.4271 11.1042 20.6562 12.2188C16.3229 13.5 14.1562 14.7656 14.1562 16.0156C14.1562 16.9531 15.5833 17.4219 18.4375 17.4219C19.1146 17.4219 19.9375 17.3958 20.9062 17.3438C21.875 17.2812 22.4115 17.25 22.5156 17.25C25.474 17.25 27.651 17.401 29.0469 17.7031C31.9115 18.3073 33.3438 19.5573 33.3438 21.4531C33.3438 23.5677 31.2604 25.6927 27.0938 27.8281C23.7292 29.5573 19.5 31.0729 14.4062 32.375C9.90625 33.5312 6.55729 34.1094 4.35938 34.1094C3.71354 34.1094 3.23438 33.8594 2.92188 33.3594C3.30729 32.7031 4.48438 31.5 6.45312 29.75C8.53646 27.8854 9.85938 26.9427 10.4219 26.9219L10.9688 27.3438C10.7604 27.7917 10.3906 28.2604 9.85938 28.75C9.42188 29.1458 8.97396 29.5417 8.51562 29.9375ZM38.4844 26.5C39.7031 23.1562 40.3125 21.1406 40.3125 20.4531L40.25 20.1406L40.1875 20.1094C39.4583 20.3698 38.5052 21.1458 37.3281 22.4375C36.2135 23.6458 35.5573 24.2604 35.3594 24.2812L34.8125 23.8281C34.8229 22.6615 35.7969 21.1406 37.7344 19.2656C39.6823 17.3802 41.2708 16.4375 42.5 16.4375C43.4271 16.4375 43.8906 17.026 43.8906 18.2031C43.8906 18.6823 43.3646 20.6979 42.3125 24.25C43.1042 22.8854 44.0312 21.6875 45.0938 20.6562C46.4792 19.3229 47.7708 18.6562 48.9688 18.6562C50.0625 18.6562 50.6094 19.6198 50.6094 21.5469C50.6094 22.724 50.2917 23.7865 49.6562 24.7344C49.1979 25.401 48.4115 26.2135 47.2969 27.1719C47.9115 27.224 48.224 27.4323 48.2344 27.7969C47.9844 28.3281 46.8646 28.8802 44.875 29.4531C43.0938 29.9531 41.7708 30.2031 40.9062 30.2031C40.0312 31.9635 39.4583 33.2031 39.1875 33.9219C38.7188 35.2344 38.4844 36.5521 38.4844 37.875C38.4844 38.1354 37.9844 38.4792 36.9844 38.9062C36.0573 39.3021 35.4271 39.5 35.0938 39.5C34.6042 39.5 34.3594 39.2135 34.3594 38.6406C34.3594 38.1823 35.3385 35.2812 37.2969 29.9375C36.5573 29.8646 36.099 29.8021 35.9219 29.75C35.3906 29.5938 35.125 29.2917 35.125 28.8438C35.125 28.4167 35.4896 27.9219 36.2188 27.3594C36.8438 26.8802 37.4167 26.5521 37.9375 26.375L38.4844 26.5ZM42.1562 27.2031C43.1875 27.2552 44.3125 27.2448 45.5312 27.1719C47.1146 25.1615 47.9062 23.6198 47.9062 22.5469C47.9062 22.349 47.8438 22.1302 47.7188 21.8906C47.5938 21.6406 47.4427 21.5156 47.2656 21.5156C46.4219 21.5156 45.4167 22.2656 44.25 23.7656C43.3125 24.9635 42.6146 26.1094 42.1562 27.2031ZM60.5 25.5781C59.5417 26.6719 58.4167 27.5938 57.125 28.3438C55.6562 29.1771 54.2708 29.5938 52.9688 29.5938C52.5 29.5938 52.1198 29.3542 51.8281 28.875C51.5781 28.4688 51.4531 28.0104 51.4531 27.5C51.4531 25.6875 52.901 23.5469 55.7969 21.0781C58.6406 18.6719 61 17.4688 62.875 17.4688C63.4688 17.4688 64.0781 17.5885 64.7031 17.8281C65.4948 18.1302 65.8906 18.526 65.8906 19.0156C65.8906 19.8177 65.5417 21.3177 64.8438 23.5156C64.1562 25.7135 63.8125 27.2969 63.8125 28.2656C63.8125 28.401 63.8646 28.599 63.9688 28.8594C64.0729 29.1094 64.125 29.2865 64.125 29.3906C64.125 29.6094 63.9896 29.8125 63.7188 30C63.4583 30.1771 63.2188 30.2656 63 30.2656C62.8333 30.2656 62.5781 30.2448 62.2344 30.2031C61.8906 30.1615 61.625 30.1406 61.4375 30.1406C60.7188 30.1406 60.3594 29.2656 60.3594 27.5156C60.3594 26.7969 60.4062 26.151 60.5 25.5781ZM56.1562 27.0469C57.0729 27.0469 58.4167 26.0052 60.1875 23.9219C61.8958 21.9115 62.8125 20.4167 62.9375 19.4375C62.8854 19.3229 62.7812 19.2656 62.625 19.2656C61.7292 19.2656 60.375 20.2656 58.5625 22.2656C56.7604 24.2552 55.8594 25.7188 55.8594 26.6562C55.8594 26.9167 55.9583 27.0469 56.1562 27.0469ZM77 24.8906C77.2812 24.8906 77.4219 25.0417 77.4219 25.3438C77.4219 26.3438 76.5729 27.4375 74.875 28.625C73.2604 29.7396 71.9323 30.2969 70.8906 30.2969C69.5677 30.2969 68.6354 30.2135 68.0938 30.0469C67.0521 29.7344 66.5312 29.0677 66.5312 28.0469C66.5312 26.2448 67.6198 24.151 69.7969 21.7656C71.974 19.3698 73.8854 18.1719 75.5312 18.1719C75.8958 18.1719 76.3125 18.3177 76.7812 18.6094C77.2917 18.9323 77.5469 19.2604 77.5469 19.5938C77.5469 20.3646 77.3802 20.8333 77.0469 21C76.9219 21.0625 76.4583 21.0938 75.6562 21.0938C74.6562 21.0938 73.6146 21.8906 72.5312 23.4844C71.5208 24.9844 71.0156 26.2604 71.0156 27.3125C71.0156 27.6979 71.1979 27.8906 71.5625 27.8906C72.3229 27.8906 73.4323 27.3906 74.8906 26.3906C76.3594 25.3906 77.0625 24.8906 77 24.8906ZM83.3594 27.1719C83.849 27.9948 84.5885 28.4062 85.5781 28.4062C86.026 28.4062 86.5885 28.2344 87.2656 27.8906C87.9531 27.5469 88.3021 27.375 88.3125 27.375C88.7188 27.375 88.9219 27.5573 88.9219 27.9219C88.9219 28.4635 88.3333 29.0052 87.1562 29.5469C86.1146 30.026 85.2656 30.2656 84.6094 30.2656C84.2448 30.2656 83.8073 30.224 83.2969 30.1406C82.5052 30.0365 81.7135 29.9323 80.9219 29.8281C80.1719 29.6719 79.6354 29.3906 79.3125 28.9844C78.9167 28.4844 78.7188 27.6771 78.7188 26.5625C78.7188 24.8229 79.6302 22.8438 81.4531 20.625C83.349 18.3333 85.1406 17.1875 86.8281 17.1875C87.9948 17.1875 88.5781 17.9792 88.5781 19.5625C88.5781 19.8125 88.4479 20.3594 88.1875 21.2031C87.6667 22.8906 87.1406 24.0938 86.6094 24.8125C85.9115 25.75 84.8281 26.5365 83.3594 27.1719ZM82.9688 25.7969C83.8542 25.2135 84.6354 24.4635 85.3125 23.5469C86.0938 22.4844 86.4844 21.4896 86.4844 20.5625C86.4844 20.0833 86.3333 19.8438 86.0312 19.8438C85.0833 19.8438 84.3073 20.6302 83.7031 22.2031C83.2344 23.4323 82.9896 24.6302 82.9688 25.7969ZM104.422 23.9688L102.406 24C101.323 24.0208 100.781 23.7188 100.781 23.0938C100.781 21.7083 102.568 21.0469 106.141 21.1094C108.224 18.6823 110.307 16.2552 112.391 13.8281C115.641 10.099 117.786 7.875 118.828 7.15625L119.406 7.5C119.562 8.0625 119.641 8.59896 119.641 9.10938C119.641 9.61979 119.443 10.9948 119.047 13.2344C118.651 15.4323 118.464 17.1094 118.484 18.2656L118.547 21.6562C118.964 21.75 119.271 21.9948 119.469 22.3906C119.292 22.849 119.016 23.125 118.641 23.2188C118.641 24.6354 119.005 26.276 119.734 28.1406L119.469 28.6875C119.083 28.8333 118.807 28.9062 118.641 28.9062C118.484 28.9062 118.302 28.8333 118.094 28.6875C117.99 28.7292 117.875 28.75 117.75 28.75C117.323 28.75 116.807 28.5156 116.203 28.0469C115.734 27.0365 115.344 25.4479 115.031 23.2812H114.812C113.948 23.2812 112.62 23.401 110.828 23.6406C109.089 23.8802 107.74 23.9896 106.781 23.9688C105.24 26.1979 103.698 28.4219 102.156 30.6406C99.9688 33.5573 98.125 35.2292 96.625 35.6562L96.0156 35.1094C96.7552 33.6302 98.0729 31.7396 99.9688 29.4375C102.74 26.0625 104.224 24.2396 104.422 23.9688ZM108.516 21.2969C109.12 21.2969 110.021 21.3438 111.219 21.4375C112.427 21.5312 113.333 21.5781 113.938 21.5781H114.844C114.823 20.7031 114.812 20.1875 114.812 20.0312C114.812 17.5625 115.25 14.9531 116.125 12.2031C115.552 12.8385 113.016 15.8698 108.516 21.2969ZM130.516 25.7969C129.536 26.7552 128.474 27.5885 127.328 28.2969C125.88 29.1823 124.641 29.625 123.609 29.625C123.349 29.625 123.01 29.4323 122.594 29.0469C122.167 28.6615 121.953 28.3281 121.953 28.0469C121.953 26.151 123.141 23.9531 125.516 21.4531C127.891 18.9427 129.995 17.6875 131.828 17.6875C132.13 17.6875 132.583 17.7292 133.188 17.8125C133.802 17.8854 134.271 17.9219 134.594 17.9219C134.885 17.9219 135.198 17.9948 135.531 18.1406L135.891 18.625C134.255 26.8958 132.505 32.7865 130.641 36.2969C130.432 36.6927 129.943 37.0781 129.172 37.4531C128.411 37.8385 127.797 38.0312 127.328 38.0312C125.943 38.0312 124.724 37.6823 123.672 36.9844C122.464 36.1719 121.859 35.0938 121.859 33.75C121.859 33.3021 122.094 32.6719 122.562 31.8594C123.062 31.0052 123.526 30.5781 123.953 30.5781C124.318 30.5781 124.859 31.4844 125.578 33.2969C126.297 35.1198 126.948 36.0312 127.531 36.0312C127.865 36.0312 128.219 35.1875 128.594 33.5C129.365 30.0625 130.005 27.4948 130.516 25.7969ZM126.531 26.625C126.531 26.7396 126.615 26.7969 126.781 26.7969C127.531 26.7969 128.719 25.8021 130.344 23.8125C131.938 21.8438 132.734 20.4583 132.734 19.6562C132.734 19.4792 132.635 19.3906 132.438 19.3906C132.094 19.3906 131.526 19.6302 130.734 20.1094C129.651 20.7656 128.698 21.6979 127.875 22.9062C126.979 24.2188 126.531 25.4583 126.531 26.625ZM141.516 27.1719C142.005 27.9948 142.745 28.4062 143.734 28.4062C144.182 28.4062 144.745 28.2344 145.422 27.8906C146.109 27.5469 146.458 27.375 146.469 27.375C146.875 27.375 147.078 27.5573 147.078 27.9219C147.078 28.4635 146.49 29.0052 145.312 29.5469C144.271 30.026 143.422 30.2656 142.766 30.2656C142.401 30.2656 141.964 30.224 141.453 30.1406C140.661 30.0365 139.87 29.9323 139.078 29.8281C138.328 29.6719 137.792 29.3906 137.469 28.9844C137.073 28.4844 136.875 27.6771 136.875 26.5625C136.875 24.8229 137.786 22.8438 139.609 20.625C141.505 18.3333 143.297 17.1875 144.984 17.1875C146.151 17.1875 146.734 17.9792 146.734 19.5625C146.734 19.8125 146.604 20.3594 146.344 21.2031C145.823 22.8906 145.297 24.0938 144.766 24.8125C144.068 25.75 142.984 26.5365 141.516 27.1719ZM141.125 25.7969C142.01 25.2135 142.792 24.4635 143.469 23.5469C144.25 22.4844 144.641 21.4896 144.641 20.5625C144.641 20.0833 144.49 19.8438 144.188 19.8438C143.24 19.8438 142.464 20.6302 141.859 22.2031C141.391 23.4323 141.146 24.6302 141.125 25.7969ZM171.906 12.5469C168.854 15.7969 165.734 19.7604 162.547 24.4375C162.422 24.6146 161.354 26.375 159.344 29.7188C157.948 32.0208 156.76 33.6562 155.781 34.625C155.74 34.6458 154.906 34.8385 153.281 35.2031L152.797 34.5625C152.786 34.1146 153.51 32.9219 154.969 30.9844C155.927 29.7344 156.885 28.4896 157.844 27.25C167.208 14.4896 172.635 8.10938 174.125 8.10938C174.479 8.10938 174.818 8.54167 175.141 9.40625C175.411 10.1562 175.547 10.7656 175.547 11.2344C175.547 11.6094 175.042 13.5312 174.031 17C172.875 20.9271 172.245 23.1094 172.141 23.5469C177.828 15.526 181.531 11.5156 183.25 11.5156C184.135 11.5156 184.578 12.2917 184.578 13.8438C184.578 15.1667 184.109 17.0677 183.172 19.5469C182.151 22.2031 181.589 24.1146 181.484 25.2812L182.094 26.1094C182.333 26.0365 182.62 25.8594 182.953 25.5781C183.224 25.3594 183.495 25.1406 183.766 24.9219L184.344 25.5C183.885 26.8333 183.146 27.776 182.125 28.3281C181.385 28.7344 180.229 29.026 178.656 29.2031L177.656 28.5625C177.406 27.8958 177.281 27.3073 177.281 26.7969C177.281 25.849 178.672 21.8802 181.453 14.8906C180.922 15.3802 179.74 16.8385 177.906 19.2656C175.75 22.1198 174.208 24.0833 173.281 25.1562C171.594 27.125 170.438 28.1094 169.812 28.1094C169.531 28.1094 169.161 27.9219 168.703 27.5469C168.245 27.1615 168.047 26.8438 168.109 26.5938C168.828 23.2292 169.359 20.8542 169.703 19.4688C170.37 16.8854 171.104 14.5781 171.906 12.5469ZM194.562 25.5781C193.604 26.6719 192.479 27.5938 191.188 28.3438C189.719 29.1771 188.333 29.5938 187.031 29.5938C186.562 29.5938 186.182 29.3542 185.891 28.875C185.641 28.4688 185.516 28.0104 185.516 27.5C185.516 25.6875 186.964 23.5469 189.859 21.0781C192.703 18.6719 195.062 17.4688 196.938 17.4688C197.531 17.4688 198.141 17.5885 198.766 17.8281C199.557 18.1302 199.953 18.526 199.953 19.0156C199.953 19.8177 199.604 21.3177 198.906 23.5156C198.219 25.7135 197.875 27.2969 197.875 28.2656C197.875 28.401 197.927 28.599 198.031 28.8594C198.135 29.1094 198.188 29.2865 198.188 29.3906C198.188 29.6094 198.052 29.8125 197.781 30C197.521 30.1771 197.281 30.2656 197.062 30.2656C196.896 30.2656 196.641 30.2448 196.297 30.2031C195.953 30.1615 195.688 30.1406 195.5 30.1406C194.781 30.1406 194.422 29.2656 194.422 27.5156C194.422 26.7969 194.469 26.151 194.562 25.5781ZM190.219 27.0469C191.135 27.0469 192.479 26.0052 194.25 23.9219C195.958 21.9115 196.875 20.4167 197 19.4375C196.948 19.3229 196.844 19.2656 196.688 19.2656C195.792 19.2656 194.438 20.2656 192.625 22.2656C190.823 24.2552 189.922 25.7188 189.922 26.6562C189.922 26.9167 190.021 27.0469 190.219 27.0469ZM208.594 23.4531C208.292 23.8073 207.786 24.6354 207.078 25.9375C206.359 27.2708 205.771 28.2135 205.312 28.7656C204.573 29.6615 203.833 30.1094 203.094 30.1094C202.688 30.1094 202.271 29.8854 201.844 29.4375C201.406 28.9896 201.188 28.5677 201.188 28.1719C201.188 27.9323 201.37 27.6719 201.734 27.3906C202.224 27.0052 202.484 26.7865 202.516 26.7344C203.099 26.0052 203.391 24.6094 203.391 22.5469C203.391 22.3385 203.354 22.1458 203.281 21.9688C202.969 21.9062 202.656 21.849 202.344 21.7969C201.958 21.7135 201.766 21.5156 201.766 21.2031C201.766 20.6094 202.229 20.1615 203.156 19.8594C203.844 19.6615 204.531 19.4635 205.219 19.2656C205.49 19.1198 205.661 19.0469 205.734 19.0469C206.286 19.0469 206.562 19.625 206.562 20.7812C206.562 22 206.24 23.6406 205.594 25.7031C205.938 25.0573 206.286 24.4062 206.641 23.75C207.068 22.9896 207.484 22.3854 207.891 21.9375C207.734 21.4167 207.656 20.8646 207.656 20.2812C207.656 19.0938 207.948 18.2865 208.531 17.8594C209.656 17.0469 210.328 16.6406 210.547 16.6406C210.859 16.6406 211.151 16.9115 211.422 17.4531C211.641 17.8802 211.771 18.2917 211.812 18.6875C211.25 20.0104 210.969 20.7708 210.969 20.9688C210.969 21.1562 211.094 21.4219 211.344 21.7656C211.604 22.1094 211.734 22.4583 211.734 22.8125C211.734 23.25 211.495 23.6146 211.016 23.9062C210.589 24.1771 210.135 24.3125 209.656 24.3125C209.271 24.3125 208.917 24.026 208.594 23.4531ZM213.812 22.7031C213.073 22.7031 212.703 22.5573 212.703 22.2656C212.703 22.0052 213.042 21.6198 213.719 21.1094C214.531 20.5052 214.958 20.1771 215 20.125C215.052 20.0625 215.531 19.1302 216.438 17.3281C217.219 15.7865 217.76 14.974 218.062 14.8906C218.365 14.7969 218.854 14.625 219.531 14.375C219.792 14.25 220.005 14.1875 220.172 14.1875C220.672 14.1875 220.969 14.5938 221.062 15.4062C220.51 16.3958 219.75 17.9167 218.781 19.9688C219.198 20 219.62 20.0312 220.047 20.0625C220.661 20.1562 220.969 20.3333 220.969 20.5938C220.969 20.9479 220.531 21.6406 219.656 22.6719C219.438 22.7448 218.719 22.7656 217.5 22.7344C216.771 24.0365 216.406 25.1094 216.406 25.9531C216.406 26.8385 216.833 27.2812 217.688 27.2812C218 27.2812 218.432 27.1771 218.984 26.9688C219.547 26.7604 219.943 26.6562 220.172 26.6562C220.62 26.6562 220.844 26.875 220.844 27.3125C220.844 28 220.094 28.6615 218.594 29.2969C217.292 29.8385 216.229 30.1094 215.406 30.1094C214.573 30.1094 213.865 29.7604 213.281 29.0625C212.74 28.4062 212.469 27.651 212.469 26.7969C212.469 26.4635 212.651 25.7969 213.016 24.7969C213.286 24.099 213.552 23.401 213.812 22.7031ZM224.281 30.1094C223.635 30.1094 223.13 29.8594 222.766 29.3594C222.432 28.901 222.266 28.3438 222.266 27.6875C222.266 27.2812 222.708 25.901 223.594 23.5469C224.479 21.1823 225.052 19.8542 225.312 19.5625C225.396 19.4792 225.901 19.224 226.828 18.7969C227.755 18.3594 228.266 18.1406 228.359 18.1406C228.797 18.1406 229.016 18.4427 229.016 19.0469C229.016 19.276 228.573 20.3021 227.688 22.125C226.812 23.9479 226.375 25.2917 226.375 26.1562C226.375 26.8125 226.641 27.1406 227.172 27.1406C227.37 27.1406 227.719 26.9844 228.219 26.6719C228.729 26.349 229.047 26.1875 229.172 26.1875C229.578 26.1875 229.781 26.3906 229.781 26.7969C229.781 27.4323 229.005 28.1615 227.453 28.9844C226.036 29.7344 224.979 30.1094 224.281 30.1094ZM226.219 17.5938C225.781 17.5938 225.562 17.2604 225.562 16.5938C225.562 16.4271 225.844 15.9167 226.406 15.0625C226.594 14.7812 227.005 14.526 227.641 14.2969C228.214 14.0781 228.703 13.9688 229.109 13.9688C229.703 13.9688 230 14.2656 230 14.8594C230 15.151 229.844 15.6458 229.531 16.3438C229.177 17.1771 228.073 17.5938 226.219 17.5938ZM239.531 25.5781C238.573 26.6719 237.448 27.5938 236.156 28.3438C234.688 29.1771 233.302 29.5938 232 29.5938C231.531 29.5938 231.151 29.3542 230.859 28.875C230.609 28.4688 230.484 28.0104 230.484 27.5C230.484 25.6875 231.932 23.5469 234.828 21.0781C237.672 18.6719 240.031 17.4688 241.906 17.4688C242.5 17.4688 243.109 17.5885 243.734 17.8281C244.526 18.1302 244.922 18.526 244.922 19.0156C244.922 19.8177 244.573 21.3177 243.875 23.5156C243.188 25.7135 242.844 27.2969 242.844 28.2656C242.844 28.401 242.896 28.599 243 28.8594C243.104 29.1094 243.156 29.2865 243.156 29.3906C243.156 29.6094 243.021 29.8125 242.75 30C242.49 30.1771 242.25 30.2656 242.031 30.2656C241.865 30.2656 241.609 30.2448 241.266 30.2031C240.922 30.1615 240.656 30.1406 240.469 30.1406C239.75 30.1406 239.391 29.2656 239.391 27.5156C239.391 26.7969 239.438 26.151 239.531 25.5781ZM235.188 27.0469C236.104 27.0469 237.448 26.0052 239.219 23.9219C240.927 21.9115 241.844 20.4167 241.969 19.4375C241.917 19.3229 241.812 19.2656 241.656 19.2656C240.76 19.2656 239.406 20.2656 237.594 22.2656C235.792 24.2552 234.891 25.7188 234.891 26.6562C234.891 26.9167 234.99 27.0469 235.188 27.0469ZM255.078 11.5938C255.443 11.5938 255.625 11.8281 255.625 12.2969C255.625 12.776 254.74 14.9635 252.969 18.8594C251.198 22.7448 250.312 25.1875 250.312 26.1875C250.312 26.8438 250.615 27.1719 251.219 27.1719C251.979 27.1719 253.156 26.5729 254.75 25.375C255.115 25.3646 255.297 25.599 255.297 26.0781C255.297 26.7344 254.443 27.651 252.734 28.8281C251.099 29.974 249.927 30.5469 249.219 30.5469C249 30.5469 248.469 30.276 247.625 29.7344C246.75 29.1823 246.312 28.7812 246.312 28.5312C246.312 26.8646 247.104 24.25 248.688 20.6875C250.229 17.2396 250.953 14.8802 250.859 13.6094L251.078 13.2188C251.38 13.0729 252.062 12.7812 253.125 12.3438C254.312 11.8438 254.964 11.5938 255.078 11.5938ZM270.578 23.9688L268.562 24C267.479 24.0208 266.938 23.7188 266.938 23.0938C266.938 21.7083 268.724 21.0469 272.297 21.1094C274.38 18.6823 276.464 16.2552 278.547 13.8281C281.797 10.099 283.943 7.875 284.984 7.15625L285.562 7.5C285.719 8.0625 285.797 8.59896 285.797 9.10938C285.797 9.61979 285.599 10.9948 285.203 13.2344C284.807 15.4323 284.62 17.1094 284.641 18.2656L284.703 21.6562C285.12 21.75 285.427 21.9948 285.625 22.3906C285.448 22.849 285.172 23.125 284.797 23.2188C284.797 24.6354 285.161 26.276 285.891 28.1406L285.625 28.6875C285.24 28.8333 284.964 28.9062 284.797 28.9062C284.641 28.9062 284.458 28.8333 284.25 28.6875C284.146 28.7292 284.031 28.75 283.906 28.75C283.479 28.75 282.964 28.5156 282.359 28.0469C281.891 27.0365 281.5 25.4479 281.188 23.2812H280.969C280.104 23.2812 278.776 23.401 276.984 23.6406C275.245 23.8802 273.896 23.9896 272.938 23.9688C271.396 26.1979 269.854 28.4219 268.312 30.6406C266.125 33.5573 264.281 35.2292 262.781 35.6562L262.172 35.1094C262.911 33.6302 264.229 31.7396 266.125 29.4375C268.896 26.0625 270.38 24.2396 270.578 23.9688ZM274.672 21.2969C275.276 21.2969 276.177 21.3438 277.375 21.4375C278.583 21.5312 279.49 21.5781 280.094 21.5781H281C280.979 20.7031 280.969 20.1875 280.969 20.0312C280.969 17.5625 281.406 14.9531 282.281 12.2031C281.708 12.8385 279.172 15.8698 274.672 21.2969ZM295.969 23.4531C295.667 23.8073 295.161 24.6354 294.453 25.9375C293.734 27.2708 293.146 28.2135 292.688 28.7656C291.948 29.6615 291.208 30.1094 290.469 30.1094C290.062 30.1094 289.646 29.8854 289.219 29.4375C288.781 28.9896 288.562 28.5677 288.562 28.1719C288.562 27.9323 288.745 27.6719 289.109 27.3906C289.599 27.0052 289.859 26.7865 289.891 26.7344C290.474 26.0052 290.766 24.6094 290.766 22.5469C290.766 22.3385 290.729 22.1458 290.656 21.9688C290.344 21.9062 290.031 21.849 289.719 21.7969C289.333 21.7135 289.141 21.5156 289.141 21.2031C289.141 20.6094 289.604 20.1615 290.531 19.8594C291.219 19.6615 291.906 19.4635 292.594 19.2656C292.865 19.1198 293.036 19.0469 293.109 19.0469C293.661 19.0469 293.938 19.625 293.938 20.7812C293.938 22 293.615 23.6406 292.969 25.7031C293.312 25.0573 293.661 24.4062 294.016 23.75C294.443 22.9896 294.859 22.3854 295.266 21.9375C295.109 21.4167 295.031 20.8646 295.031 20.2812C295.031 19.0938 295.323 18.2865 295.906 17.8594C297.031 17.0469 297.703 16.6406 297.922 16.6406C298.234 16.6406 298.526 16.9115 298.797 17.4531C299.016 17.8802 299.146 18.2917 299.188 18.6875C298.625 20.0104 298.344 20.7708 298.344 20.9688C298.344 21.1562 298.469 21.4219 298.719 21.7656C298.979 22.1094 299.109 22.4583 299.109 22.8125C299.109 23.25 298.87 23.6146 298.391 23.9062C297.964 24.1771 297.51 24.3125 297.031 24.3125C296.646 24.3125 296.292 24.026 295.969 23.4531ZM301.188 22.7031C300.448 22.7031 300.078 22.5573 300.078 22.2656C300.078 22.0052 300.417 21.6198 301.094 21.1094C301.906 20.5052 302.333 20.1771 302.375 20.125C302.427 20.0625 302.906 19.1302 303.812 17.3281C304.594 15.7865 305.135 14.974 305.438 14.8906C305.74 14.7969 306.229 14.625 306.906 14.375C307.167 14.25 307.38 14.1875 307.547 14.1875C308.047 14.1875 308.344 14.5938 308.438 15.4062C307.885 16.3958 307.125 17.9167 306.156 19.9688C306.573 20 306.995 20.0312 307.422 20.0625C308.036 20.1562 308.344 20.3333 308.344 20.5938C308.344 20.9479 307.906 21.6406 307.031 22.6719C306.812 22.7448 306.094 22.7656 304.875 22.7344C304.146 24.0365 303.781 25.1094 303.781 25.9531C303.781 26.8385 304.208 27.2812 305.062 27.2812C305.375 27.2812 305.807 27.1771 306.359 26.9688C306.922 26.7604 307.318 26.6562 307.547 26.6562C307.995 26.6562 308.219 26.875 308.219 27.3125C308.219 28 307.469 28.6615 305.969 29.2969C304.667 29.8385 303.604 30.1094 302.781 30.1094C301.948 30.1094 301.24 29.7604 300.656 29.0625C300.115 28.4062 299.844 27.651 299.844 26.7969C299.844 26.4635 300.026 25.7969 300.391 24.7969C300.661 24.099 300.927 23.401 301.188 22.7031ZM315.641 20.4531C315.453 20.6927 315.359 20.9323 315.359 21.1719C315.359 21.2031 315.714 21.8646 316.422 23.1562C317.13 24.4479 317.484 25.4219 317.484 26.0781C317.484 27.3385 316.797 28.4219 315.422 29.3281C314.193 30.1406 312.906 30.5469 311.562 30.5469C309.51 30.5469 308.484 30.0365 308.484 29.0156C308.484 28.5677 308.771 28.0156 309.344 27.3594C309.917 26.7031 310.411 26.375 310.828 26.375C311.172 26.375 311.578 26.7344 312.047 27.4531C312.516 28.1719 312.891 28.5312 313.172 28.5312C313.495 28.5312 313.656 28.2708 313.656 27.75C313.656 26.8021 313.286 25.7552 312.547 24.6094C311.807 23.4635 311.438 22.7344 311.438 22.4219C311.438 21.6198 312.151 20.6146 313.578 19.4062C314.974 18.2188 316.078 17.625 316.891 17.625C317.151 17.625 317.432 17.724 317.734 17.9219C318.078 18.1406 318.25 18.375 318.25 18.625C318.25 20.2708 317.844 21.0938 317.031 21.0938C316.438 21.0938 315.974 20.8802 315.641 20.4531Z" fill="white"/>
</g>
<defs>
<filter id="filter0_d_1_319" x="0.921875" y="0.765625" width="335.328" height="52.7344" filterUnits="userSpaceOnUse" color-interpolation-filters="sRGB">
<feFlood flood-opacity="0" result="BackgroundImageFix"/>
<feColorMatrix in="SourceAlpha" type="matrix" values="0 0 0 0 0 0 0 0 0 0 0 0 0 0 0 0 0 0 127 0" result="hardAlpha"/>
<feOffset dx="8" dy="4"/>
<feGaussianBlur stdDeviation="5"/>
<feComposite in2="hardAlpha" operator="out"/>
<feColorMatrix type="matrix" values="0 0 0 0 0 0 0 0 0 0 0 0 0 0 0 0 0 0 1 0"/>
<feBlend mode="normal" in2="BackgroundImageFix" result="effect1_dropShadow_1_319"/>
<feBlend mode="normal" in="SourceGraphic" in2="effect1_dropShadow_1_319" result="shape"/>
</filter>
</defs>
</svg>
