<svg width="19" height="30" viewBox="0 0 19 30" fill="none" xmlns="http://www.w3.org/2000/svg">
<path d="M18.8782 8.52239C18.8782 8.3427 18.7672 8.15529 18.5416 8.14563C18.175 8.13017 17.8064 8.11664 17.4398 8.10505C17.3984 7.38436 17.2931 6.62503 16.8325 6.05119C16.4771 5.6068 15.9638 5.3421 15.4223 5.35755C15.3565 3.82344 14.5273 2.34342 12.9366 2.32797C12.7203 1.22472 11.9588 0.272176 10.8288 0.0441846C9.74574 -0.172215 8.60818 0.417086 8.55929 1.57443C8.0159 1.50488 7.48566 1.83334 7.26755 2.35309C6.83133 2.15214 6.34058 2.07099 5.80471 2.1618C4.05794 2.45742 3.74206 4.0012 4.00718 5.50053C3.43558 5.36335 2.83013 5.38267 2.34878 5.75751C1.59668 6.34101 1.70197 7.34379 1.91256 8.1804C1.38797 8.19006 0.861496 8.19973 0.336902 8.20745C-0.0466712 8.21325 -0.103079 8.73686 0.169559 8.88563C1.44626 15.7177 1.95017 22.6579 2.80757 29.5517C2.83201 29.743 2.97115 29.8532 3.11781 29.8841C3.17422 29.9536 3.25883 30 3.37353 30H15.4053C15.5182 30 15.6028 29.9556 15.6592 29.8879C15.8322 29.944 16.0296 29.8841 16.0691 29.6484C17.2104 22.7448 17.9343 15.7776 18.9948 8.86051C19.0173 8.71754 18.9647 8.60161 18.8819 8.52239H18.8782ZM2.79441 6.3101C3.25507 5.97777 3.95453 6.17678 4.41707 6.39511C4.81757 6.58446 5.1673 5.9855 4.78561 5.78456C4.45656 4.49582 4.51673 2.87283 6.20144 2.84771C7.41797 2.83032 8.21145 3.9413 8.55554 5.01557C8.67963 5.40393 9.22491 5.29959 9.24747 4.9634C9.5972 4.86872 9.94505 4.94794 10.2139 5.14888C10.385 5.40006 10.5148 5.69568 10.6125 5.91208C10.6313 5.95458 10.6558 5.98743 10.6821 6.01448C10.6821 6.02221 10.684 6.02801 10.6859 6.03573C10.7178 6.49365 11.4192 6.49751 11.3853 6.03573C11.3402 5.40972 11.0506 4.9035 10.6332 4.58663C10.2741 4.16156 9.81719 3.87754 9.26063 3.96835C9.22303 3.84083 9.17602 3.71524 9.12713 3.59352C9.05004 3.17038 8.94851 2.72406 8.7586 2.37241C8.93911 2.38786 9.08765 2.24875 9.13278 2.08645C9.21739 2.03042 9.2738 1.93574 9.26251 1.79663C9.13654 0.0693021 11.124 0.789988 11.6072 1.23052C12.0265 1.61308 12.2446 2.12896 12.2916 2.70087C12.3067 2.88056 12.4402 3.07957 12.6413 3.06025C14.1192 2.9134 14.7378 4.29875 14.7284 5.58748C14.7284 5.68988 14.7623 5.7691 14.8168 5.82513C14.8544 6.00868 15.0124 6.16905 15.2417 6.10722C16.1612 5.85605 16.5429 6.78733 16.6802 7.5969C16.6726 7.5969 16.667 7.59497 16.6595 7.59497H2.57066C2.54433 7.59497 2.51801 7.5969 2.49544 7.6027C2.40331 7.12353 2.39391 6.60185 2.79441 6.31203V6.3101ZM2.63082 21.7788C2.65151 21.7942 2.67219 21.8097 2.69475 21.8213C2.69852 22.0357 2.70039 22.2483 2.70415 22.4627C2.67971 22.2348 2.65527 22.0068 2.62894 21.7788H2.63082ZM4.50921 28.7789C3.78531 22.2135 3.10465 15.6442 2.46536 9.06919C2.45784 9.00156 2.43904 8.94166 2.41271 8.8895C2.74364 8.8837 3.07457 8.8779 3.40549 8.87018C4.1952 15.4839 4.52425 22.1401 5.03756 28.7789H4.50733H4.50921ZM5.10901 9.22376C5.09585 9.0943 5.08645 8.96678 5.07329 8.83733C5.08833 8.83733 5.10337 8.83733 5.11841 8.83733C5.11465 8.96678 5.11089 9.09624 5.10901 9.22376ZM5.79155 17.9937C5.80659 17.4295 5.81975 16.8634 5.83479 16.2992C5.85172 17.1648 5.86676 18.0304 5.88368 18.896C5.88932 19.1762 5.89496 19.4563 5.89872 19.7365C5.863 19.1549 5.82727 18.5753 5.79155 17.9937ZM6.97611 28.7789C6.90278 24.8084 6.82757 20.8398 6.75424 16.8692C6.71664 14.9042 6.68091 12.9393 6.64331 10.9762C6.63579 10.526 6.7298 9.50005 6.52297 8.81028C7.0438 8.80062 7.56463 8.79096 8.08359 8.78323C8.09299 15.4491 8.10427 22.113 8.11367 28.7789H6.97423H6.97611ZM9.22115 8.76584C9.3114 8.76584 9.40165 8.76391 9.49191 8.76198C9.4261 10.7134 9.35841 12.6668 9.2926 14.6183C9.27192 12.6668 9.24935 10.7154 9.22115 8.76584ZM9.4167 28.6378C9.4167 28.4543 9.41294 28.2707 9.41106 28.0872C9.45618 28.2746 9.50695 28.4601 9.56147 28.6456C9.51259 28.6456 9.4637 28.6417 9.4167 28.6378ZM9.73822 25.7049C9.57464 23.8075 9.70626 21.8599 9.80027 19.9606C9.78147 21.8754 9.76078 23.7901 9.73822 25.7049ZM12.0021 24.0548C11.8573 25.6295 11.705 27.2042 11.5433 28.777H10.5223C10.4884 28.7364 10.449 28.7035 10.4038 28.6746C10.4866 22.0377 10.5411 15.3989 10.6182 8.76198C10.6182 8.75811 10.6182 8.75425 10.6182 8.75038C11.3759 8.74459 12.1356 8.74459 12.8933 8.74652C12.2747 12.0582 12.3217 15.424 12.2785 18.7859C12.2559 20.5345 12.0923 22.2966 12.0021 24.0548ZM12.8331 25.7049C12.8388 25.2933 12.8519 24.8818 12.8707 24.4683C12.9836 23.2549 13.0926 22.0415 13.196 20.8262C13.0795 22.4531 12.9591 24.078 12.8331 25.7049ZM14.783 8.76198C14.8751 8.76198 14.9654 8.76391 15.0575 8.76584C14.452 14.9197 14.0177 21.089 13.4141 27.2409C13.918 21.0851 14.2791 14.9178 14.7848 8.76198H14.783ZM15.7551 8.77743C16.1593 8.78516 16.5636 8.79482 16.9697 8.80642L14.8582 28.775H13.9575C14.6457 22.1169 15.1007 15.4375 15.7569 8.7755L15.7551 8.77743Z" fill="white"/>
</svg>
