<svg width="176" height="59" viewBox="0 0 176 59" fill="none" xmlns="http://www.w3.org/2000/svg">
<g filter="url(#filter0_d_1_320)">
<rect x="7" y="3" width="156" height="39" rx="19.5" fill="white"/>
</g>
<path d="M24.3086 24.625C25.2227 22.1172 25.6797 20.6055 25.6797 20.0898L25.6328 19.8555L25.5859 19.832C25.0391 20.0273 24.3242 20.6094 23.4414 21.5781C22.6055 22.4844 22.1133 22.9453 21.9648 22.9609L21.5547 22.6211C21.5625 21.7461 22.293 20.6055 23.7461 19.1992C25.207 17.7852 26.3984 17.0781 27.3203 17.0781C28.0156 17.0781 28.3633 17.5195 28.3633 18.4023C28.3633 18.7617 27.9688 20.2734 27.1797 22.9375C27.7734 21.9141 28.4688 21.0156 29.2656 20.2422C30.3047 19.2422 31.2734 18.7422 32.1719 18.7422C32.9922 18.7422 33.4023 19.4648 33.4023 20.9102C33.4023 21.793 33.1641 22.5898 32.6875 23.3008C32.3438 23.8008 31.7539 24.4102 30.918 25.1289C31.3789 25.168 31.6133 25.3242 31.6211 25.5977C31.4336 25.9961 30.5938 26.4102 29.1016 26.8398C27.7656 27.2148 26.7734 27.4023 26.125 27.4023C25.4688 28.7227 25.0391 29.6523 24.8359 30.1914C24.4844 31.1758 24.3086 32.1641 24.3086 33.1562C24.3086 33.3516 23.9336 33.6094 23.1836 33.9297C22.4883 34.2266 22.0156 34.375 21.7656 34.375C21.3984 34.375 21.2148 34.1602 21.2148 33.7305C21.2148 33.3867 21.9492 31.2109 23.418 27.2031C22.8633 27.1484 22.5195 27.1016 22.3867 27.0625C21.9883 26.9453 21.7891 26.7188 21.7891 26.3828C21.7891 26.0625 22.0625 25.6914 22.6094 25.2695C23.0781 24.9102 23.5078 24.6641 23.8984 24.5312L24.3086 24.625ZM27.0625 25.1523C27.8359 25.1914 28.6797 25.1836 29.5938 25.1289C30.7812 23.6211 31.375 22.4648 31.375 21.6602C31.375 21.5117 31.3281 21.3477 31.2344 21.168C31.1406 20.9805 31.0273 20.8867 30.8945 20.8867C30.2617 20.8867 29.5078 21.4492 28.6328 22.5742C27.9297 23.4727 27.4062 24.332 27.0625 25.1523ZM38.043 25.1289C38.4102 25.7461 38.9648 26.0547 39.707 26.0547C40.043 26.0547 40.4648 25.9258 40.9727 25.668C41.4883 25.4102 41.75 25.2812 41.7578 25.2812C42.0625 25.2812 42.2148 25.418 42.2148 25.6914C42.2148 26.0977 41.7734 26.5039 40.8906 26.9102C40.1094 27.2695 39.4727 27.4492 38.9805 27.4492C38.707 27.4492 38.3789 27.418 37.9961 27.3555C37.4023 27.2773 36.8086 27.1992 36.2148 27.1211C35.6523 27.0039 35.25 26.793 35.0078 26.4883C34.7109 26.1133 34.5625 25.5078 34.5625 24.6719C34.5625 23.3672 35.2461 21.8828 36.6133 20.2188C38.0352 18.5 39.3789 17.6406 40.6445 17.6406C41.5195 17.6406 41.957 18.2344 41.957 19.4219C41.957 19.6094 41.8594 20.0195 41.6641 20.6523C41.2734 21.918 40.8789 22.8203 40.4805 23.3594C39.957 24.0625 39.1445 24.6523 38.043 25.1289ZM37.75 24.0977C38.4141 23.6602 39 23.0977 39.5078 22.4102C40.0938 21.6133 40.3867 20.8672 40.3867 20.1719C40.3867 19.8125 40.2734 19.6328 40.0469 19.6328C39.3359 19.6328 38.7539 20.2227 38.3008 21.4023C37.9492 22.3242 37.7656 23.2227 37.75 24.0977ZM50.3945 17.9688C50.8789 17.9688 51.2578 18.1562 51.5312 18.5312C51.7812 18.875 51.9062 19.293 51.9062 19.7852C51.9062 19.8086 51.9023 19.8398 51.8945 19.8789C51.9727 19.9961 52.0117 20.1602 52.0117 20.3711C52.0117 20.543 51.7695 21.0898 51.2852 22.0117C51.2227 22.1211 51.168 22.2305 51.1211 22.3398C51.0508 22.5117 50.9805 22.6992 50.9102 22.9023C50.8242 23.1133 50.7461 23.3164 50.6758 23.5117C50.5977 23.8164 50.5586 24.1016 50.5586 24.3672C50.5586 24.8594 50.7578 25.1055 51.1562 25.1055C51.3047 25.1055 51.5664 24.9883 51.9414 24.7539C52.3242 24.5117 52.5625 24.3906 52.6562 24.3906C52.9609 24.3906 53.1133 24.543 53.1133 24.8477C53.1133 25.3242 52.5312 25.8711 51.3672 26.4883C50.3047 27.0508 49.5117 27.332 48.9883 27.332C48.5039 27.332 48.125 27.1445 47.8516 26.7695C47.6016 26.4258 47.4766 26.0078 47.4766 25.5156C47.4766 25.2109 47.8086 24.1758 48.4727 22.4102C48.5664 22.1445 48.6602 21.8945 48.7539 21.6602C48.8008 21.3945 48.8242 21.1523 48.8242 20.9336C48.8242 20.4414 48.625 20.1953 48.2266 20.1953C48.0781 20.1953 47.4336 20.4844 46.293 21.0625C45.1523 21.6406 44.5352 21.9297 44.4414 21.9297C44.1367 21.9297 43.9844 21.7773 43.9844 21.4727C43.9844 20.9961 45.3281 20.1094 48.0156 18.8125C49.0781 18.25 49.8711 17.9688 50.3945 17.9688ZM60.5781 22.6445C59.2578 24.7227 58.043 26.0352 56.9336 26.582C56.918 26.5898 56.7109 26.7227 56.3125 26.9805C56.0312 27.1602 55.8203 27.25 55.6797 27.25C55.3984 27.25 55.1055 27.082 54.8008 26.7461C54.4961 26.4023 54.3438 26.0898 54.3438 25.8086C54.3438 24.5117 54.7461 22.9102 55.5508 21.0039C56.5039 18.7773 57.5195 17.6641 58.5977 17.6641C58.8008 17.6641 59.0156 17.8359 59.2422 18.1797C59.4453 18.5 59.5469 18.7695 59.5469 18.9883C59.5469 19.2383 59.1992 20.0781 58.5039 21.5078C57.8164 22.9297 57.4727 23.7695 57.4727 24.0273C57.4727 24.2383 57.5664 24.3438 57.7539 24.3438C58.0742 24.3438 58.543 23.8398 59.1602 22.832C60.2695 20.9883 60.8359 20.0469 60.8594 20.0078C61.5703 18.9922 62.2148 18.4844 62.793 18.4844C63.293 18.4844 63.543 18.9648 63.543 19.9258C63.543 20.4414 63.418 21.2031 63.168 22.2109C62.9258 23.2188 62.8047 23.9766 62.8047 24.4844C62.8047 24.6172 62.8398 24.8164 62.9102 25.082C62.9805 25.3398 63.0156 25.5273 63.0156 25.6445C63.0156 25.9492 62.7656 26.3047 62.2656 26.7109C61.7734 27.1094 61.3711 27.3086 61.0586 27.3086C60.8633 27.3086 60.6445 27.1719 60.4023 26.8984C60.1602 26.625 60.0508 26.3984 60.0742 26.2188L60.5781 22.6445ZM72.2031 23.418C72.4141 23.418 72.5195 23.5312 72.5195 23.7578C72.5195 24.5078 71.8828 25.3281 70.6094 26.2188C69.3984 27.0547 68.4023 27.4727 67.6211 27.4727C66.6289 27.4727 65.9297 27.4102 65.5234 27.2852C64.7422 27.0508 64.3516 26.5508 64.3516 25.7852C64.3516 24.4336 65.168 22.8633 66.8008 21.0742C68.4336 19.2773 69.8672 18.3789 71.1016 18.3789C71.375 18.3789 71.6875 18.4883 72.0391 18.707C72.4219 18.9492 72.6133 19.1953 72.6133 19.4453C72.6133 20.0234 72.4883 20.375 72.2383 20.5C72.1445 20.5469 71.7969 20.5703 71.1953 20.5703C70.4453 20.5703 69.6641 21.168 68.8516 22.3633C68.0938 23.4883 67.7148 24.4453 67.7148 25.2344C67.7148 25.5234 67.8516 25.668 68.125 25.668C68.6953 25.668 69.5273 25.293 70.6211 24.543C71.7227 23.793 72.25 23.418 72.2031 23.418ZM79.8672 21.4258C78.9453 22.5664 78.0234 23.7031 77.1016 24.8359C75.625 26.4609 74.4531 27.2734 73.5859 27.2734C73.0703 27.2734 72.8125 26.875 72.8125 26.0781C72.8125 25.9922 73.1484 25.1641 73.8203 23.5938C74.5547 21.8828 74.9648 20.8945 75.0508 20.6289C75.1758 20.2227 75.4062 19.6523 75.7422 18.918C76.1172 18.3555 76.6172 18.0742 77.2422 18.0742C77.4375 18.0742 77.6328 18.2148 77.8281 18.4961C78 18.7539 78.0859 18.9883 78.0859 19.1992C78.0859 19.3008 77.8281 19.9844 77.3125 21.25C76.7031 22.7578 76.3828 23.5547 76.3516 23.6406C77.2578 22.6328 78.1641 21.625 79.0703 20.6172C80.5625 19.0156 81.4648 18.2148 81.7773 18.2148C82.0508 18.2148 82.2734 18.3477 82.4453 18.6133C82.5938 18.8398 82.668 19.0938 82.668 19.375C82.668 19.6484 82.207 21.1016 81.2852 23.7344C81.6133 23.2422 82.4609 22.2969 83.8281 20.8984C85.3438 19.3516 86.2656 18.5781 86.5938 18.5781C87.0781 18.5781 87.3203 19.0039 87.3203 19.8555C87.3203 20.4102 87.1445 21.2148 86.793 22.2695C86.4492 23.3242 86.2773 24.1094 86.2773 24.625C86.2773 24.7734 86.3359 24.9883 86.4531 25.2695C86.5781 25.5508 86.6406 25.7148 86.6406 25.7617C86.6406 25.8945 86.2188 26.2109 85.375 26.7109C84.5391 27.2031 84.0391 27.4492 83.875 27.4492C83.6406 27.4492 83.3984 27.3594 83.1484 27.1797C82.875 26.9766 82.7383 26.7617 82.7383 26.5352L84.1328 21.9531C83.3672 22.9141 82.6016 23.875 81.8359 24.8359C80.8125 26.0156 79.875 26.7109 79.0234 26.9219C78.8047 26.8516 78.5977 26.7188 78.4023 26.5234C78.1758 26.3125 78.0625 26.1055 78.0625 25.9023C78.0625 25.668 78.6641 24.1758 79.8672 21.4258ZM91.1758 24.625C92.0898 22.1172 92.5469 20.6055 92.5469 20.0898L92.5 19.8555L92.4531 19.832C91.9062 20.0273 91.1914 20.6094 90.3086 21.5781C89.4727 22.4844 88.9805 22.9453 88.832 22.9609L88.4219 22.6211C88.4297 21.7461 89.1602 20.6055 90.6133 19.1992C92.0742 17.7852 93.2656 17.0781 94.1875 17.0781C94.8828 17.0781 95.2305 17.5195 95.2305 18.4023C95.2305 18.7617 94.8359 20.2734 94.0469 22.9375C94.6406 21.9141 95.3359 21.0156 96.1328 20.2422C97.1719 19.2422 98.1406 18.7422 99.0391 18.7422C99.8594 18.7422 100.27 19.4648 100.27 20.9102C100.27 21.793 100.031 22.5898 99.5547 23.3008C99.2109 23.8008 98.6211 24.4102 97.7852 25.1289C98.2461 25.168 98.4805 25.3242 98.4883 25.5977C98.3008 25.9961 97.4609 26.4102 95.9688 26.8398C94.6328 27.2148 93.6406 27.4023 92.9922 27.4023C92.3359 28.7227 91.9062 29.6523 91.7031 30.1914C91.3516 31.1758 91.1758 32.1641 91.1758 33.1562C91.1758 33.3516 90.8008 33.6094 90.0508 33.9297C89.3555 34.2266 88.8828 34.375 88.6328 34.375C88.2656 34.375 88.082 34.1602 88.082 33.7305C88.082 33.3867 88.8164 31.2109 90.2852 27.2031C89.7305 27.1484 89.3867 27.1016 89.2539 27.0625C88.8555 26.9453 88.6562 26.7188 88.6562 26.3828C88.6562 26.0625 88.9297 25.6914 89.4766 25.2695C89.9453 24.9102 90.375 24.6641 90.7656 24.5312L91.1758 24.625ZM93.9297 25.1523C94.7031 25.1914 95.5469 25.1836 96.4609 25.1289C97.6484 23.6211 98.2422 22.4648 98.2422 21.6602C98.2422 21.5117 98.1953 21.3477 98.1016 21.168C98.0078 20.9805 97.8945 20.8867 97.7617 20.8867C97.1289 20.8867 96.375 21.4492 95.5 22.5742C94.7969 23.4727 94.2734 24.332 93.9297 25.1523ZM107.688 23.9336C106.969 24.7539 106.125 25.4453 105.156 26.0078C104.055 26.6328 103.016 26.9453 102.039 26.9453C101.688 26.9453 101.402 26.7656 101.184 26.4062C100.996 26.1016 100.902 25.7578 100.902 25.375C100.902 24.0156 101.988 22.4102 104.16 20.5586C106.293 18.7539 108.062 17.8516 109.469 17.8516C109.914 17.8516 110.371 17.9414 110.84 18.1211C111.434 18.3477 111.73 18.6445 111.73 19.0117C111.73 19.6133 111.469 20.7383 110.945 22.3867C110.43 24.0352 110.172 25.2227 110.172 25.9492C110.172 26.0508 110.211 26.1992 110.289 26.3945C110.367 26.582 110.406 26.7148 110.406 26.793C110.406 26.957 110.305 27.1094 110.102 27.25C109.906 27.3828 109.727 27.4492 109.562 27.4492C109.438 27.4492 109.246 27.4336 108.988 27.4023C108.73 27.3711 108.531 27.3555 108.391 27.3555C107.852 27.3555 107.582 26.6992 107.582 25.3867C107.582 24.8477 107.617 24.3633 107.688 23.9336ZM104.43 25.0352C105.117 25.0352 106.125 24.2539 107.453 22.6914C108.734 21.1836 109.422 20.0625 109.516 19.3281C109.477 19.2422 109.398 19.1992 109.281 19.1992C108.609 19.1992 107.594 19.9492 106.234 21.4492C104.883 22.9414 104.207 24.0391 104.207 24.7422C104.207 24.9375 104.281 25.0352 104.43 25.0352ZM119.359 29.418C119.359 29.1133 119.52 28.4375 119.84 27.3906L119.875 27.2852C119.805 27.3008 119.738 27.3086 119.676 27.3086C119.48 27.3086 119.262 27.1719 119.02 26.8984C118.777 26.625 118.668 26.3984 118.691 26.2188L119.195 22.6445C117.875 24.7227 116.66 26.0352 115.551 26.582C115.535 26.5898 115.328 26.7227 114.93 26.9805C114.648 27.1602 114.438 27.25 114.297 27.25C114.016 27.25 113.723 27.082 113.418 26.7461C113.113 26.4023 112.961 26.0898 112.961 25.8086C112.961 24.5117 113.363 22.9102 114.168 21.0039C115.121 18.7773 116.137 17.6641 117.215 17.6641C117.418 17.6641 117.633 17.8359 117.859 18.1797C118.062 18.5 118.164 18.7695 118.164 18.9883C118.164 19.2383 117.816 20.0781 117.121 21.5078C116.434 22.9297 116.09 23.7695 116.09 24.0273C116.09 24.2383 116.184 24.3438 116.371 24.3438C116.691 24.3438 117.16 23.8398 117.777 22.832C118.887 20.9883 119.453 20.0469 119.477 20.0078C120.188 18.9922 120.832 18.4844 121.41 18.4844C121.91 18.4844 122.16 18.9648 122.16 19.9258C122.16 20.4414 122.035 21.2031 121.785 22.2109C121.543 23.2188 121.422 23.9766 121.422 24.4844C121.422 24.6094 121.449 24.793 121.504 25.0352C121.582 24.9961 121.668 24.957 121.762 24.918C122.457 24.5898 122.84 24.4258 122.91 24.4258C123.238 24.4258 123.402 24.6523 123.402 25.1055C123.402 25.2773 123.242 25.6875 122.922 26.3359C122.602 26.9766 122.441 27.6211 122.441 28.2695C121.91 29.1367 120.883 29.5195 119.359 29.418ZM130.984 22.6445C129.664 24.7227 128.449 26.0352 127.34 26.582C127.324 26.5898 127.117 26.7227 126.719 26.9805C126.438 27.1602 126.227 27.25 126.086 27.25C125.805 27.25 125.512 27.082 125.207 26.7461C124.902 26.4023 124.75 26.0898 124.75 25.8086C124.75 24.5117 125.152 22.9102 125.957 21.0039C126.91 18.7773 127.926 17.6641 129.004 17.6641C129.207 17.6641 129.422 17.8359 129.648 18.1797C129.852 18.5 129.953 18.7695 129.953 18.9883C129.953 19.2383 129.605 20.0781 128.91 21.5078C128.223 22.9297 127.879 23.7695 127.879 24.0273C127.879 24.2383 127.973 24.3438 128.16 24.3438C128.48 24.3438 128.949 23.8398 129.566 22.832C130.676 20.9883 131.242 20.0469 131.266 20.0078C131.977 18.9922 132.621 18.4844 133.199 18.4844C133.699 18.4844 133.949 18.9648 133.949 19.9258C133.949 20.4414 133.824 21.2031 133.574 22.2109C133.332 23.2188 133.211 23.9766 133.211 24.4844C133.211 24.6172 133.246 24.8164 133.316 25.082C133.387 25.3398 133.422 25.5273 133.422 25.6445C133.422 25.9492 133.172 26.3047 132.672 26.7109C132.18 27.1094 131.777 27.3086 131.465 27.3086C131.27 27.3086 131.051 27.1719 130.809 26.8984C130.566 26.625 130.457 26.3984 130.48 26.2188L130.984 22.6445ZM145.188 18.3555H145.27C145.598 18.3555 145.762 18.582 145.762 19.0352C145.762 19.207 145.43 19.9766 144.766 21.3438C144.109 22.7109 143.781 23.7188 143.781 24.3672C143.781 24.8594 143.98 25.1055 144.379 25.1055C144.527 25.1055 144.789 24.9883 145.164 24.7539C145.547 24.5117 145.785 24.3906 145.879 24.3906C146.184 24.3906 146.336 24.543 146.336 24.8477C146.336 25.3242 145.754 25.8711 144.59 26.4883C143.527 27.0508 142.734 27.332 142.211 27.332C141.727 27.332 141.348 27.1445 141.074 26.7695C140.824 26.4258 140.699 26.0078 140.699 25.5156C140.699 25.2344 140.977 24.3398 141.531 22.832C141.453 22.8086 141.375 22.7812 141.297 22.75C138.727 24.7266 137.137 25.9844 136.527 26.5234C135.691 27.2734 135.035 27.6484 134.559 27.6484C133.996 27.6484 133.715 27.3008 133.715 26.6055C133.715 26.3242 133.957 25.8203 134.441 25.0938C134.926 24.3672 135.254 24.0039 135.426 24.0039C135.645 24.0039 135.848 24.1055 136.035 24.3086C136.184 24.4883 136.336 24.668 136.492 24.8477C136.875 24.5898 137.965 23.5977 139.762 21.8711C139.668 21.7695 139.582 21.6641 139.504 21.5547C139.426 21.4375 139.344 21.3203 139.258 21.2031C139.148 21.0469 139.035 20.8867 138.918 20.7227C138.801 20.5508 138.734 20.3633 138.719 20.1602C138.703 19.918 138.746 19.6953 138.848 19.4922C138.957 19.2812 139.098 19.0938 139.27 18.9297C139.441 18.7656 139.633 18.6289 139.844 18.5195C140.062 18.4102 140.273 18.3242 140.477 18.2617C140.703 18.1914 140.949 18.1406 141.215 18.1094C141.488 18.0703 141.738 18.082 141.965 18.1445C142.051 18.168 142.156 18.207 142.281 18.2617C142.414 18.3086 142.531 18.3359 142.633 18.3438C142.953 18.3516 143.266 18.3398 143.57 18.3086C143.875 18.2695 144.184 18.2422 144.496 18.2266L145.188 18.3555ZM142.785 19.75H142.645C142.598 19.75 142.555 19.7461 142.516 19.7383C142.422 19.7305 142.324 19.7109 142.223 19.6797C142.129 19.6484 142.035 19.6172 141.941 19.5859C141.848 19.5547 141.754 19.5312 141.66 19.5156C141.566 19.4922 141.469 19.4883 141.367 19.5039C141.172 19.5273 140.977 19.5703 140.781 19.6328C140.586 19.6953 140.41 19.7969 140.254 19.9375C140.223 19.9688 140.195 20.0117 140.172 20.0664L140.184 20.1016C140.309 20.2812 140.43 20.457 140.547 20.6289C140.672 20.8008 140.824 20.9492 141.004 21.0742C141.16 21.1758 141.332 21.2383 141.52 21.2617C141.715 21.2852 141.91 21.3047 142.105 21.3203L142.785 19.75Z" fill="black"/>
<defs>
<filter id="filter0_d_1_320" x="0" y="0" width="176" height="59" filterUnits="userSpaceOnUse" color-interpolation-filters="sRGB">
<feFlood flood-opacity="0" result="BackgroundImageFix"/>
<feColorMatrix in="SourceAlpha" type="matrix" values="0 0 0 0 0 0 0 0 0 0 0 0 0 0 0 0 0 0 127 0" result="hardAlpha"/>
<feOffset dx="3" dy="7"/>
<feGaussianBlur stdDeviation="5"/>
<feComposite in2="hardAlpha" operator="out"/>
<feColorMatrix type="matrix" values="0 0 0 0 0 0 0 0 0 0 0 0 0 0 0 0 0 0 1 0"/>
<feBlend mode="normal" in2="BackgroundImageFix" result="effect1_dropShadow_1_320"/>
<feBlend mode="normal" in="SourceGraphic" in2="effect1_dropShadow_1_320" result="shape"/>
</filter>
</defs>
</svg>
